<svg width="375" height="812" viewBox="0 0 375 812" fill="none" xmlns="http://www.w3.org/2000/svg">
<path d="M423.241 784.5C189.411 850.837 243.411 369 -92.5891 507C-595.487 713.547 -685.467 -26.2091 -501.115 -199.404C-316.763 -372.598 239.426 -80.0553 423.587 115.969C607.748 311.994 837.411 667 423.241 784.5Z" fill="#F9C70C"/>
<path d="M787.251 646.131C787.251 817.891 176.114 1052.8 309.114 590.799C398.933 278.799 57.1143 246.799 117.114 -13.201C169.377 -239.671 312.49 15.1306 484.251 15.1306C656.012 15.1306 787.251 474.37 787.251 646.131Z" fill="url(#paint0_linear)"/>
<path d="M795.251 640.131C795.251 811.891 184.114 1046.8 317.114 584.799C406.933 272.799 65.1143 240.799 125.114 -19.201C177.377 -245.671 320.49 9.13061 492.251 9.13061C664.012 9.13061 795.251 468.37 795.251 640.131Z" fill="url(#paint1_linear)"/>
<path d="M794.251 640.131C794.251 661.307 784.828 683.556 768.451 705.417C752.079 727.27 728.812 748.661 701.263 768.098C646.161 806.975 574.065 837.941 506.145 849.138C438.18 860.343 374.682 851.716 336.436 811.813C298.219 771.94 284.859 700.458 318.075 585.076C340.583 506.891 336.065 446.174 317.509 395.021C298.966 343.902 266.429 302.41 233.062 262.656C229.172 258.022 225.272 253.411 221.38 248.812C158.451 174.43 97.9571 102.927 126.089 -18.9761C139.145 -75.5533 157.784 -101.592 180.695 -109.369C192.167 -113.263 204.851 -112.635 218.69 -108.796C232.534 -104.956 247.465 -97.9213 263.386 -89.0871C277.296 -81.3685 291.919 -72.3006 307.199 -62.8251C309.405 -61.4567 311.626 -60.0797 313.86 -58.6971C331.552 -47.7476 350.08 -36.4516 369.305 -26.26C407.748 -5.88182 449.07 10.1306 492.251 10.1306C534.728 10.1306 574.879 38.5342 611.274 84.1938C647.646 129.824 680.11 192.496 707.232 260.59C761.482 396.793 794.251 554.415 794.251 640.131Z" stroke="white" stroke-opacity="0.6" stroke-width="2"/>
<path d="M801.22 277C801.22 448.76 1080.94 912.64 592.219 896C-200.781 869 589.585 457.739 225.277 128C-48.7226 -120 521.517 -300 693.277 -300C865.038 -300 801.22 105.239 801.22 277Z" fill="url(#paint2_linear)"/>
<path d="M809.22 274C809.22 445.76 1088.94 909.64 600.219 893C-192.781 866 597.585 454.739 233.277 125C-40.7226 -123 529.517 -303 701.277 -303C873.038 -303 809.22 102.239 809.22 274Z" fill="url(#paint3_linear)"/>
<path d="M808.22 274C808.22 295.586 812.612 321.71 819.31 350.818C825.389 377.236 833.382 406.169 841.751 436.463C842.606 439.557 843.465 442.665 844.326 445.786C862.918 513.184 882.58 586.654 886.992 654.215C891.404 721.781 880.55 783.224 838.336 826.759C796.12 870.296 722.311 896.156 600.253 892C501.164 888.627 426.862 879.252 371.971 864.805C317.071 850.356 281.681 830.858 260.309 807.307C238.966 783.789 231.509 756.127 232.687 725.115C233.867 694.065 243.704 659.699 256.93 622.865C263.336 605.024 270.538 586.606 277.922 567.721C300.986 508.736 325.833 445.194 333.781 380.433C344.292 294.8 325.293 206.935 233.948 124.259C199.779 93.3318 178.838 63.5252 168.615 35.0681C158.398 6.62952 158.867 -20.5126 167.601 -46.1778C185.094 -97.5748 235.786 -143.168 300.622 -181.137C365.418 -219.082 444.154 -249.303 517.432 -270.038C590.722 -290.776 658.467 -302 701.277 -302C722.534 -302 740.106 -295.737 754.616 -284.462C769.142 -273.176 780.651 -256.828 789.692 -236.59C807.783 -196.092 815.903 -140.225 818.66 -78.8654C821.415 -17.5279 818.808 49.1877 815.509 111.329C814.747 125.679 813.948 139.787 813.17 153.529C810.58 199.27 808.22 240.953 808.22 274Z" stroke="white" stroke-opacity="0.6" stroke-width="2"/>
<path d="M82.1325 25.2403C112.314 65 60.5001 108 23.736 75.9208C-1.05531 54.2887 -44.3084 -29.3231 -27.8573 -57.8173C-11.4061 -86.3115 12.0072 -71.3176 44.0001 -79C98.4573 -92.0766 10.2294 -69.4824 82.1325 25.2403Z" fill="url(#paint4_linear)"/>
<defs>
<linearGradient id="paint0_linear" x1="229.114" y1="-213.201" x2="391.114" y2="774.799" gradientUnits="userSpaceOnUse">
<stop stop-color="#F12711"/>
<stop offset="1" stop-color="#F5AF19"/>
</linearGradient>
<linearGradient id="paint1_linear" x1="237.114" y1="-219.201" x2="399.114" y2="768.799" gradientUnits="userSpaceOnUse">
<stop stop-color="#F12711"/>
<stop offset="1" stop-color="#F5AF19"/>
</linearGradient>
<linearGradient id="paint2_linear" x1="596.091" y1="-286" x2="596.091" y2="928.436" gradientUnits="userSpaceOnUse">
<stop stop-color="#4A00E0"/>
<stop offset="1" stop-color="#8E2DE2"/>
</linearGradient>
<linearGradient id="paint3_linear" x1="604.091" y1="-289" x2="604.091" y2="925.436" gradientUnits="userSpaceOnUse">
<stop stop-color="#4A00E0"/>
<stop offset="1" stop-color="#8E2DE2"/>
</linearGradient>
<linearGradient id="paint4_linear" x1="116.807" y1="-80.7856" x2="35.1284" y2="60.6867" gradientUnits="userSpaceOnUse">
<stop stop-color="#29A4EC"/>
<stop offset="1" stop-color="#363ECF"/>
</linearGradient>
</defs>
</svg>
