<svg width="101" height="67" viewBox="0 0 101 67" fill="none" xmlns="http://www.w3.org/2000/svg">
<rect width="101" height="67" fill="white" fill-opacity="0.01"/>
<path d="M51.061 59.602C74.9228 59.602 94.2666 59.102 94.2666 58.4853C94.2666 57.8686 74.9228 57.3687 51.061 57.3687C27.1993 57.3687 7.85547 57.8686 7.85547 58.4853C7.85547 59.102 27.1993 59.602 51.061 59.602Z" fill="url(#paint0_linear)" fill-opacity="0.6"/>
<g opacity="0.5">
<path d="M77.4942 28.5521C77.3834 27.9535 77.1142 27.6069 76.5918 27.3706C76.3385 27.2446 76.0536 27.1659 75.7844 27.1343C69.6578 26.3152 65.1302 25.8899 60.2226 25.8899C57.468 25.8899 54.6026 26.0317 51.2623 26.2995C50.2649 26.3782 49.2834 26.5515 48.3177 26.835C43.3784 28.2528 40.0698 29.9698 35.7162 33.1833C35.0355 33.6874 34.4656 34.3333 34.0698 35.1052C33.7849 35.6565 33.5791 36.1763 33.3574 36.8852C46.2438 35.5462 58.1012 34.6956 74.0747 34.2545C74.5338 34.2388 75.0087 34.1758 75.452 34.0182C76.3069 33.7347 76.766 33.3094 77.0984 32.632C77.1934 32.4272 77.2567 32.1909 77.2725 31.9546C77.32 31.2773 77.4625 29.7493 77.51 29.1349C77.5417 28.9301 77.5258 28.7411 77.4942 28.5521ZM60.2226 26.9453C64.0853 26.9453 67.7265 27.2289 71.6684 27.6857L70.9718 33.2779C65.7793 33.4354 60.935 33.6559 56.1857 33.9395L57.5472 26.9926C58.4653 26.9453 59.3519 26.9453 60.2226 26.9453ZM35.0197 35.5777C35.3363 34.9634 35.8112 34.4278 36.3495 34.0182C40.7347 30.789 43.9483 29.1664 48.6185 27.8275C49.4892 27.5754 50.4074 27.4179 51.3572 27.3391C53.0986 27.1974 54.6817 27.0871 56.1857 27.0241L54.1752 34.0497C47.8586 34.4436 41.6529 34.9634 34.9722 35.6408C35.0038 35.625 35.0038 35.6093 35.0197 35.5777ZM76.4652 29.0247C76.4177 29.6233 76.291 31.167 76.2277 31.8444C76.2119 31.9704 76.196 32.0807 76.1485 32.1594C75.9586 32.5375 75.7369 32.8053 75.1037 33.0101C74.7871 33.1203 74.423 33.1833 74.043 33.1833C73.2198 33.1991 72.3966 33.2306 71.5734 33.2621L72.27 27.7645C73.3623 27.8905 74.4863 28.0322 75.642 28.1898C75.8319 28.2213 75.9902 28.2685 76.1327 28.3315C76.3544 28.4418 76.4018 28.4891 76.4493 28.7569C76.481 28.8199 76.481 28.9144 76.4652 29.0247Z" fill="#333333"/>
<path d="M56.6596 30.5998C56.5172 29.4971 55.8998 28.7252 55.409 28.741C55.2507 28.741 54.6016 29.056 54.6016 29.056C54.1267 29.2923 53.8417 30.1114 53.9684 31.1511C54.0792 32.049 54.475 32.7579 54.9182 32.9627L54.1267 34.5694V34.6954L56.2164 34.7585L56.5488 32.3326L56.3747 32.3956C56.6438 31.986 56.7546 31.3244 56.6596 30.5998Z" fill="#1A1A1A"/>
<path d="M41.2091 36.5712L39.5627 32.7276C39.4835 32.5543 39.2777 32.4598 39.0877 32.5386C38.9136 32.6173 38.8186 32.8221 38.8977 33.0112L39.4043 34.1926L39.2302 34.2714L38.7236 33.0742C38.6919 33.0112 38.6286 32.9639 38.5495 32.9639C38.0745 32.9954 36.5231 33.1844 34.6867 33.4522V36.3822L40.1801 36.5712L40.1009 36.398L40.3384 36.4137L40.5283 36.8548C40.6075 37.0281 40.8133 37.1226 41.0033 37.0438C41.2091 36.9493 41.2882 36.7445 41.2091 36.5712Z" fill="#262626"/>
</g>
<path d="M32.0746 48.1803C32.0746 49.2357 31.9954 50.0706 31.9163 51.0473L16.6869 50.6377C16.4653 49.8501 16.3069 49.0467 16.3069 48.1803C16.3069 43.8798 19.8373 40.3985 24.1908 40.3985C28.5443 40.3827 32.0746 43.8798 32.0746 48.1803Z" fill="#46494B"/>
<path d="M87.7052 48.3853C87.7052 48.9051 87.6893 49.3777 87.6577 49.8345L87.531 49.8503L72.4283 50.8427C72.3491 50.0551 72.3174 49.2517 72.3174 48.3853C72.3174 44.0848 75.7686 40.6035 80.0113 40.6035C84.254 40.6035 87.7052 44.0848 87.7052 48.3853Z" fill="#46494B"/>
<path d="M24.1921 41.7695C20.5668 41.7695 17.6381 44.6995 17.6381 48.2911C17.6381 51.8985 20.5668 54.8127 24.1921 54.8127C27.8174 54.8127 30.7461 51.8985 30.7461 48.2911C30.7461 44.6995 27.8174 41.7695 24.1921 41.7695ZM24.1921 53.0957C21.5325 53.0957 19.3795 50.9533 19.3795 48.3069C19.3795 45.6604 21.5325 43.5181 24.1921 43.5181C26.8517 43.5181 29.0047 45.6604 29.0047 48.3069C29.0047 50.9375 26.8517 53.0957 24.1921 53.0957Z" fill="url(#paint1_radial)"/>
<path d="M24.0964 53.3607C26.868 53.3607 29.1148 51.125 29.1148 48.3671C29.1148 45.6092 26.868 43.3735 24.0964 43.3735C21.3248 43.3735 19.078 45.6092 19.078 48.3671C19.078 51.125 21.3248 53.3607 24.0964 53.3607Z" fill="#303030"/>
<path d="M24.0973 51.7233C25.9508 51.7233 27.4534 50.2281 27.4534 48.3837C27.4534 46.5394 25.9508 45.0442 24.0973 45.0442C22.2437 45.0442 20.7411 46.5394 20.7411 48.3837C20.7411 50.2281 22.2437 51.7233 24.0973 51.7233Z" fill="url(#paint2_radial)"/>
<path d="M27.6901 47.879C27.6267 47.4379 27.4843 47.0126 27.2784 46.6503C27.1676 46.4455 26.9302 46.099 26.6927 45.8469C26.3761 45.5161 26.012 45.2641 25.632 45.0908C25.5845 45.0593 25.5212 45.0908 25.4895 45.1381L25.0938 45.7997C25.0146 45.9099 25.0304 46.0832 25.1254 46.1777C25.2837 46.288 25.4104 46.3825 25.537 46.4928C25.8853 46.7921 26.1386 47.1859 26.3128 47.5955C26.3128 47.5955 26.3128 47.5955 26.3128 47.6112C26.3761 47.7845 26.4394 47.9735 26.4394 48.1626C26.4552 48.4776 26.4394 48.7769 26.3603 49.092C26.3128 49.2652 26.2653 49.4385 26.2178 49.6276C26.2019 49.7693 26.2811 49.9111 26.4236 49.9584L27.136 50.2577C27.1835 50.2734 27.2468 50.2577 27.2784 50.2104C27.4368 49.9111 27.6584 49.218 27.6584 49.2022C27.7375 48.7612 27.7534 48.3201 27.6901 47.879Z" fill="url(#paint3_linear)"/>
<path d="M24.0967 43.5796C21.4371 43.5796 19.2841 45.7219 19.2841 48.3684C19.2841 51.0148 21.4371 53.1572 24.0967 53.1572C26.7563 53.1572 28.9093 51.0148 28.9093 48.3684C28.9093 45.7377 26.7563 43.5796 24.0967 43.5796ZM24.0967 52.2908C21.9278 52.2908 20.1706 50.5422 20.1706 48.3841C20.1706 46.226 21.9278 44.4775 24.0967 44.4775C26.2655 44.4775 28.0228 46.226 28.0228 48.3841C28.0228 50.5422 26.2655 52.2908 24.0967 52.2908Z" fill="url(#paint4_radial)"/>
<path d="M25.6799 47.2804L27.4213 46.225C27.4055 46.2092 26.2815 45.0908 26.2657 45.075L25.1891 46.8078C24.9042 47.0126 24.5242 46.8708 24.4293 46.4928L24.9042 44.5237C24.8884 44.5237 23.2736 44.5237 23.2578 44.5237L23.7327 46.5085C23.6694 46.8551 23.3053 47.0126 22.9728 46.8078L21.9121 45.075C21.8963 45.0908 20.7723 46.2092 20.7565 46.225L22.4979 47.2961C22.7037 47.5797 22.5454 47.942 22.1813 48.0365L20.2024 47.5639C20.2024 47.5797 20.2024 49.1707 20.2024 49.1865L22.1971 48.7139C22.5454 48.7769 22.7037 49.1392 22.4979 49.47L20.7565 50.5412C20.7723 50.5569 21.8963 51.6754 21.9121 51.6911L22.9886 49.9583C23.2736 49.7535 23.6377 49.8953 23.7485 50.2734L23.2736 52.2582C23.2894 52.2582 24.8725 52.274 24.8884 52.2582L24.4293 50.2734C24.4926 49.9268 24.8567 49.7693 25.1891 49.9583L26.2657 51.6911C26.2815 51.6754 27.4055 50.5569 27.4213 50.5412L25.6799 49.4858C25.4741 49.2022 25.6166 48.8241 25.9965 48.7296L27.9754 49.2022C27.9754 49.1865 27.9754 47.5954 27.9754 47.5797L25.9965 48.0523C25.6324 47.9735 25.4741 47.6112 25.6799 47.2804Z" fill="url(#paint5_radial)"/>
<path d="M25.4113 47.4702L27.6276 45.8319C27.501 45.6744 26.8202 45.0128 26.6619 44.871L24.9997 47.0763C24.7622 47.2496 24.4614 47.1236 24.3823 46.8085L24.778 44.0833C24.5722 44.0676 23.6066 44.0676 23.4166 44.0833L23.8124 46.8085C23.7649 47.0921 23.4641 47.2181 23.1791 47.0606L21.5327 44.8552C21.3744 44.9812 20.6937 45.6586 20.567 45.8161L22.7833 47.4702C22.9575 47.7064 22.8308 48.0057 22.5142 48.0845L19.7913 47.7064C19.7755 47.9112 19.7755 48.8564 19.7913 49.0612L22.5301 48.6674C22.815 48.7146 22.9417 49.0139 22.7833 49.2975L20.567 50.9357C20.6778 51.0775 21.3586 51.7549 21.5327 51.8966L23.195 49.6913C23.4324 49.518 23.7332 49.644 23.8124 49.9433L23.4166 52.6685C23.6066 52.6843 24.5722 52.6843 24.778 52.6685L24.3823 49.9433C24.4298 49.644 24.7306 49.518 24.9997 49.6913L26.6619 51.8966C26.8202 51.7864 27.4851 51.0933 27.6276 50.9357L25.4113 49.2975C25.2371 49.0612 25.3638 48.7619 25.6646 48.6674L28.4033 49.0612C28.4192 48.8564 28.4192 47.8955 28.4033 47.7064L25.6646 48.1003C25.3638 48.053 25.2371 47.7537 25.4113 47.4702Z" fill="url(#paint6_radial)"/>
<path d="M25.0948 47.6909L27.8494 45.391C27.5961 45.076 27.422 44.9185 27.1054 44.6507L24.794 47.3916C24.6041 47.5176 24.3824 47.4231 24.3191 47.1868L24.6357 43.6267C24.2241 43.5952 23.9708 43.5795 23.5909 43.6267L23.9075 47.2026C23.8758 47.4231 23.6384 47.5176 23.4326 47.3916L21.1213 44.6507C20.7888 44.9185 20.6305 45.076 20.3772 45.391L23.1318 47.6909C23.2584 47.88 23.1634 48.1005 22.926 48.1635L19.3482 47.8484C19.3007 48.258 19.3007 48.4943 19.3482 48.8881L22.9418 48.5731C23.1634 48.6046 23.2584 48.8409 23.1318 49.0456L20.3772 51.3455C20.6147 51.6291 20.7888 51.8181 21.1213 52.0859L23.4009 49.3764C23.5909 49.2504 23.8125 49.3449 23.8758 49.5812L23.5592 53.1413C23.955 53.1886 24.2083 53.1728 24.6041 53.1413L24.2874 49.5812C24.3191 49.3607 24.5566 49.2662 24.7624 49.3764L27.0737 52.1174C27.3903 51.8811 27.5486 51.6921 27.8178 51.377L25.0948 49.0614C24.9682 48.8724 25.0632 48.6518 25.2848 48.5888L28.8626 48.9039C28.9101 48.4943 28.8943 48.2423 28.8626 47.8642L25.2848 48.1793C25.0632 48.132 24.9682 47.8957 25.0948 47.6909Z" fill="url(#paint7_radial)"/>
<path d="M80.122 53.284C82.8936 53.284 85.1404 51.0483 85.1404 48.2905C85.1404 45.5326 82.8936 43.2969 80.122 43.2969C77.3504 43.2969 75.1036 45.5326 75.1036 48.2905C75.1036 51.0483 77.3504 53.284 80.122 53.284Z" fill="#303030"/>
<path d="M80.1231 41.7695C76.4978 41.7695 73.5691 44.6995 73.5691 48.2911C73.5691 51.8985 76.4978 54.8127 80.1231 54.8127C83.7484 54.8127 86.6771 51.8985 86.6771 48.2911C86.6771 44.6995 83.7484 41.7695 80.1231 41.7695ZM80.1231 53.0957C77.4635 53.0957 75.3105 50.9533 75.3105 48.3069C75.3105 45.6604 77.4635 43.5181 80.1231 43.5181C82.7827 43.5181 84.9357 45.6604 84.9357 48.3069C84.9357 50.9375 82.7827 53.0957 80.1231 53.0957Z" fill="url(#paint8_radial)"/>
<path d="M80.2076 50.7153C81.5103 50.7153 82.5664 49.6644 82.5664 48.3681C82.5664 47.0718 81.5103 46.021 80.2076 46.021C78.9048 46.021 77.8488 47.0718 77.8488 48.3681C77.8488 49.6644 78.9048 50.7153 80.2076 50.7153Z" fill="url(#paint9_radial)"/>
<path d="M80.2082 51.723C82.0618 51.723 83.5644 50.2279 83.5644 48.3835C83.5644 46.5391 82.0618 45.0439 80.2082 45.0439C78.3547 45.0439 76.8521 46.5391 76.8521 48.3835C76.8521 50.2279 78.3547 51.723 80.2082 51.723Z" fill="url(#paint10_radial)"/>
<path d="M83.801 47.8785C83.7377 47.4375 83.5952 47.0121 83.3894 46.6498C83.2786 46.445 83.0411 46.0985 82.8037 45.8464C82.487 45.5156 82.1229 45.2636 81.743 45.0903C81.6955 45.0588 81.6322 45.0903 81.6005 45.1376L81.2047 45.7992C81.1256 45.9095 81.1414 46.0827 81.2364 46.1772C81.3947 46.2875 81.5214 46.382 81.648 46.4923C81.9963 46.7916 82.2496 47.1854 82.4237 47.595C82.4237 47.595 82.4237 47.595 82.4237 47.6107C82.487 47.784 82.5504 47.973 82.5504 48.1621C82.5662 48.4771 82.5504 48.7764 82.4712 49.0915C82.4237 49.2648 82.3762 49.438 82.3287 49.6271C82.3129 49.7688 82.3921 49.9106 82.5345 49.9579L83.2469 50.2572C83.2944 50.2729 83.3578 50.2572 83.3894 50.2099C83.5477 49.9106 83.7694 49.2175 83.7694 49.2017C83.8485 48.7607 83.8643 48.3196 83.801 47.8785Z" fill="url(#paint11_linear)"/>
<path d="M80.2076 43.5793C77.548 43.5793 75.395 45.7217 75.395 48.3681C75.395 51.0146 77.548 53.1569 80.2076 53.1569C82.8672 53.1569 85.0202 51.0146 85.0202 48.3681C85.0202 45.7375 82.8672 43.5793 80.2076 43.5793ZM80.2076 52.2905C78.0388 52.2905 76.2816 50.542 76.2816 48.3839C76.2816 46.2258 78.0388 44.4772 80.2076 44.4772C82.3765 44.4772 84.1337 46.2258 84.1337 48.3839C84.1337 50.542 82.3765 52.2905 80.2076 52.2905Z" fill="url(#paint12_radial)"/>
<path d="M81.7909 47.2801L83.5323 46.2247C83.5165 46.209 82.3925 45.0905 82.3767 45.0748L81.3002 46.8076C81.0152 47.0123 80.6353 46.8706 80.5403 46.4925L81.0152 44.5234C80.9994 44.5234 79.3846 44.5234 79.3688 44.5234L79.8437 46.5083C79.7804 46.8548 79.4163 47.0123 79.0838 46.8076L78.0232 45.0748C78.0073 45.0905 76.8833 46.209 76.8675 46.2247L78.6089 47.2959C78.8147 47.5794 78.6564 47.9418 78.2923 48.0363L76.3134 47.5637C76.3134 47.5794 76.3134 49.1705 76.3134 49.1862L78.3081 48.7136C78.6564 48.7766 78.8147 49.139 78.6089 49.4698L76.8675 50.5409C76.8833 50.5567 78.0073 51.6751 78.0232 51.6909L79.0997 49.9581C79.3846 49.7533 79.7487 49.8951 79.8596 50.2731L79.3846 52.258C79.4005 52.258 80.9835 52.2737 80.9994 52.258L80.5403 50.2731C80.6036 49.9266 80.9677 49.7691 81.3002 49.9581L82.3767 51.6909C82.3925 51.6751 83.5165 50.5567 83.5323 50.5409L81.7909 49.4855C81.5851 49.202 81.7276 48.8239 82.1075 48.7294L84.0864 49.202C84.0864 49.1862 84.0864 47.5952 84.0864 47.5794L82.1075 48.052C81.7434 47.9733 81.5851 47.6109 81.7909 47.2801Z" fill="url(#paint13_radial)"/>
<path d="M81.5223 47.4697L83.7386 45.8314C83.6119 45.6739 82.9312 45.0123 82.7729 44.8705L81.1106 47.0759C80.8732 47.2491 80.5724 47.1231 80.4932 46.8081L80.889 44.0829C80.6832 44.0671 79.7175 44.0671 79.5275 44.0829L79.9233 46.8081C79.8758 47.0916 79.575 47.2176 79.2901 47.0601L77.6437 44.8547C77.4854 44.9808 76.8046 45.6581 76.678 45.8156L78.8943 47.4697C79.0684 47.706 78.9418 48.0053 78.6252 48.084L75.9023 47.706C75.8864 47.9107 75.8864 48.8559 75.9023 49.0607L78.641 48.6669C78.926 48.7141 79.0526 49.0134 78.8943 49.297L76.678 50.9352C76.7888 51.077 77.4695 51.7544 77.6437 51.8962L79.3059 49.6908C79.5434 49.5175 79.8442 49.6435 79.9233 49.9428L79.5275 52.668C79.7175 52.6838 80.6832 52.6838 80.889 52.668L80.4932 49.9428C80.5407 49.6435 80.8415 49.5175 81.1106 49.6908L82.7729 51.8962C82.9312 51.7859 83.5961 51.0928 83.7386 50.9352L81.5223 49.297C81.3481 49.0607 81.4748 48.7614 81.7755 48.6669L84.5143 49.0607C84.5301 48.8559 84.5301 47.895 84.5143 47.706L81.7755 48.0998C81.4748 48.0525 81.3481 47.7532 81.5223 47.4697Z" fill="url(#paint14_radial)"/>
<path d="M81.2058 47.6907L83.9604 45.3908C83.7071 45.0757 83.5329 44.9182 83.2163 44.6504L80.905 47.3914C80.715 47.5174 80.4934 47.4229 80.4301 47.1866L80.7467 43.6265C80.3351 43.595 80.0818 43.5792 79.7018 43.6265L80.0185 47.2023C79.9868 47.4229 79.7493 47.5174 79.5435 47.3914L77.2322 44.6504C76.8998 44.9182 76.7415 45.0757 76.4882 45.3908L79.2427 47.6907C79.3694 47.8797 79.2744 48.1002 79.0369 48.1633L75.4591 47.8482C75.4116 48.2578 75.4116 48.4941 75.4591 48.8879L79.0528 48.5728C79.2744 48.6043 79.3694 48.8406 79.2427 49.0454L76.4882 51.3453C76.7256 51.6288 76.8998 51.8179 77.2322 52.0856L79.5119 49.3762C79.7018 49.2502 79.9235 49.3447 79.9868 49.581L79.6702 53.1411C80.066 53.1883 80.3193 53.1726 80.715 53.1411L80.3984 49.581C80.4301 49.3605 80.6675 49.2659 80.8733 49.3762L83.1847 52.1172C83.5013 51.8809 83.6596 51.6918 83.9287 51.3768L81.2058 49.0612C81.0791 48.8721 81.1741 48.6516 81.3958 48.5886L84.9736 48.9036C85.0211 48.4941 85.0052 48.242 84.9736 47.864L81.3958 48.179C81.1741 48.1317 81.0791 47.8955 81.2058 47.6907Z" fill="url(#paint15_radial)"/>
<path d="M31.9162 33.5461L31.9003 33.5619C31.3937 33.8612 30.8397 34.0502 30.2539 34.0975L29.5732 34.1605C29.874 33.9872 30.1589 33.8139 30.4439 33.6407C30.8397 33.6564 31.2829 33.6249 31.9162 33.5461Z" fill="#6B7377"/>
<path opacity="0.4" d="M91.2507 33.152C90.1109 33.089 89.3668 33.0575 88.1795 32.7424L82.2745 28.1426L85.3299 27.9851C87.6571 29.8439 89.4301 31.3877 91.2507 33.152Z" fill="#B2B6B9"/>
<path opacity="0.4" d="M45.325 26.8048C40.1958 28.9629 36.2855 30.9634 31.9003 33.5626C31.3937 33.8619 30.8397 34.051 30.2539 34.0982L29.5732 34.1612C35.7473 30.4121 40.5441 28.0492 45.0875 26.6315L45.2933 26.6157C45.5625 26.6157 45.5783 26.6945 45.325 26.8048Z" fill="#B2B6B9"/>
<path d="M60.4435 26.0323C65.5728 26.0323 70.3221 26.5049 75.8629 27.198C76.132 27.2295 76.3695 27.2925 76.5753 27.3871C77.0186 27.5918 77.2085 27.8281 77.3035 28.2692C77.3352 28.3952 77.3352 28.537 77.3193 28.7103C77.2719 29.2774 77.1452 30.6951 77.0819 31.341C77.0661 31.5458 77.0186 31.719 76.9394 31.8608C76.6386 32.4437 76.2112 32.7745 75.483 33.0107C75.103 33.1368 74.6756 33.1998 74.2006 33.2155C59.6203 33.5936 48.0004 34.2867 34.2116 35.6099C34.3857 35.1689 34.544 34.8065 34.7499 34.46C35.1298 33.7984 35.6522 33.2155 36.2855 32.7745C40.7181 29.7027 43.9635 28.1747 48.7128 26.8987C49.631 26.6467 50.5967 26.4892 51.5782 26.4104C54.9344 26.1426 57.7523 26.0323 60.4435 26.0323ZM60.4435 25.7173C57.7048 25.7173 54.8552 25.8433 51.5465 26.0953C50.565 26.1741 49.5835 26.3316 48.6178 26.5994C43.7102 27.9227 40.4332 29.5294 36.0955 32.5224C35.4306 32.9792 34.8607 33.5936 34.4649 34.3025C34.1799 34.8065 33.9741 35.3106 33.7525 35.9565C46.5598 34.712 58.3222 33.9244 74.2006 33.5148C74.6597 33.4991 75.1188 33.4361 75.5621 33.2943C76.4012 33.0265 76.8761 32.6327 77.2085 32.0026C77.3035 31.8135 77.3668 31.593 77.3827 31.3725C77.4302 30.7424 77.5568 29.3089 77.6201 28.7418C77.636 28.5685 77.636 28.3952 77.6043 28.222C77.4935 27.6549 77.2244 27.3556 76.7019 27.1193C76.4486 27.009 76.1795 26.9302 75.8946 26.8987C69.8313 26.1269 65.3195 25.7173 60.4435 25.7173Z" fill="url(#paint16_linear)" stroke="black" stroke-width="0.367" stroke-miterlimit="10"/>
<path d="M59.7944 26.0317L58.9554 33.7663C58.3063 33.7978 57.6573 33.8293 57.0082 33.8608L58.5438 26.0317C58.9712 26.0317 59.3828 26.0317 59.7944 26.0317Z" fill="url(#paint17_linear)"/>
<path d="M58.5597 26.0483L57.0241 33.8774C56.3592 33.9089 55.6943 33.9561 55.0294 33.9877L57.2932 26.0798C57.7048 26.0641 58.1323 26.0483 58.5597 26.0483Z" fill="url(#paint18_linear)"/>
<path d="M38.2961 31.4355L37.9162 35.2634C36.6972 35.3737 35.4782 35.484 34.2275 35.61C34.4017 35.1689 34.56 34.8066 34.75 34.46C35.1299 33.7984 35.6523 33.2156 36.2856 32.7745C36.9821 32.2862 37.647 31.8451 38.2961 31.4355Z" fill="#1A1A1A"/>
<path d="M92.929 40.0679V36.2558C92.929 35.3264 92.549 34.4285 91.8841 33.7668C91.6625 33.5621 91.4567 33.3573 91.2509 33.1525C90.111 33.0895 89.367 33.058 88.1797 32.7429L82.2747 28.1432L85.3301 27.9856L85.7575 27.5603C85.8367 27.4816 85.8684 27.3555 85.8209 27.2453C85.7892 27.1665 85.71 27.1035 85.6309 27.0877C76.7655 25.5282 70.3065 24.7721 59.2565 24.7249C54.0164 24.7249 49.6787 25.1974 45.0719 26.6467L45.2777 26.6309C45.5627 26.6152 45.5785 26.6939 45.3094 26.8042C40.1802 28.9623 36.2699 30.9629 31.8847 33.5621C31.3781 33.8614 30.8241 34.0504 30.2383 34.0977L29.5576 34.1607L29.4784 34.1764C29.0826 34.2079 28.7027 34.2394 28.3228 34.2867C15.4997 35.4996 7.29923 38.7289 7.88497 45.3608C7.9008 45.4553 7.97996 45.5183 8.05911 45.5183H8.70818L8.73985 47.4086L8.05911 48.7633C7.78999 49.3147 8.1541 49.9605 8.77151 50.0078L15.9271 50.5749L16.5603 50.6221H16.687C16.4654 49.8345 16.3071 49.0311 16.3071 48.1647C16.3071 43.8643 19.8374 40.3829 24.1909 40.3829C28.5444 40.3829 32.0747 43.8643 32.0747 48.1647C32.0747 49.2202 31.9955 50.055 31.9164 51.0317H32.0272H32.5813L71.7155 50.8427H72.3012L72.4279 50.8269C72.3487 50.0393 72.317 49.2359 72.317 48.3695C72.317 44.0691 75.7682 40.5877 80.0109 40.5877C84.2536 40.5877 87.7047 44.0691 87.7047 48.3695C87.7047 48.8894 87.6889 49.3619 87.6573 49.8188L88.3538 49.74L90.9818 49.4249C91.4567 49.3619 91.8999 49.1729 92.2482 48.8578L93.3564 47.8339C93.8472 47.4086 94.1638 46.81 94.2113 46.1799C94.3696 43.4389 94.2588 41.5644 92.929 40.0679ZM77.6362 28.7418C77.5888 29.3089 77.4621 30.7266 77.3988 31.3725C77.3829 31.593 77.3196 31.8135 77.2246 32.0026C76.8922 32.6327 76.4173 33.0422 75.5782 33.2943C75.1349 33.436 74.6759 33.4991 74.2168 33.5148C58.3541 33.9086 46.5759 34.712 33.7686 35.9565C33.9902 35.3106 34.1961 34.8065 34.481 34.3024C34.8768 33.5936 35.4467 32.9792 36.1116 32.5224C40.4335 29.5294 43.7263 27.9226 48.6339 26.5994C49.5838 26.3474 50.5653 26.1741 51.5626 26.0953C60.7763 25.3865 66.4279 25.6858 75.9107 26.883C76.1956 26.9145 76.4648 26.9775 76.718 27.1035C77.2246 27.3398 77.4938 27.6391 77.6204 28.2062C77.6362 28.3795 77.6521 28.5685 77.6362 28.7418Z" fill="white"/>
<mask id="mask0" mask-type="alpha" maskUnits="userSpaceOnUse" x="7" y="24" width="88" height="28">
<path d="M92.929 40.0679V36.2558C92.929 35.3264 92.549 34.4285 91.8841 33.7668C91.6625 33.5621 91.4567 33.3573 91.2509 33.1525C90.111 33.0895 89.367 33.058 88.1797 32.7429L82.2747 28.1432L85.3301 27.9856L85.7575 27.5603C85.8367 27.4816 85.8684 27.3555 85.8209 27.2453C85.7892 27.1665 85.71 27.1035 85.6309 27.0877C76.7655 25.5282 70.3065 24.7721 59.2565 24.7249C54.0164 24.7249 49.6787 25.1974 45.0719 26.6467L45.2777 26.6309C45.5627 26.6152 45.5785 26.6939 45.3094 26.8042C40.1802 28.9623 36.2699 30.9629 31.8847 33.5621C31.3781 33.8614 30.8241 34.0504 30.2383 34.0977L29.5576 34.1607L29.4784 34.1764C29.0826 34.2079 28.7027 34.2394 28.3228 34.2867C15.4997 35.4996 7.29923 38.7289 7.88497 45.3608C7.9008 45.4553 7.97996 45.5183 8.05911 45.5183H8.70818L8.73985 47.4086L8.05911 48.7633C7.78999 49.3147 8.1541 49.9605 8.77151 50.0078L15.9271 50.5749L16.5603 50.6221H16.687C16.4654 49.8345 16.3071 49.0311 16.3071 48.1647C16.3071 43.8643 19.8374 40.3829 24.1909 40.3829C28.5444 40.3829 32.0747 43.8643 32.0747 48.1647C32.0747 49.2202 31.9955 50.055 31.9164 51.0317H32.0272H32.5813L71.7155 50.8427H72.3012L72.4279 50.8269C72.3487 50.0393 72.317 49.2359 72.317 48.3695C72.317 44.0691 75.7682 40.5877 80.0109 40.5877C84.2536 40.5877 87.7047 44.0691 87.7047 48.3695C87.7047 48.8894 87.6889 49.3619 87.6573 49.8188L88.3538 49.74L90.9818 49.4249C91.4567 49.3619 91.8999 49.1729 92.2482 48.8578L93.3564 47.8339C93.8472 47.4086 94.1638 46.81 94.2113 46.1799C94.3696 43.4389 94.2588 41.5644 92.929 40.0679ZM77.6362 28.7418C77.5888 29.3089 77.4621 30.7266 77.3988 31.3725C77.3829 31.593 77.3196 31.8135 77.2246 32.0026C76.8922 32.6327 76.4173 33.0422 75.5782 33.2943C75.1349 33.436 74.6759 33.4991 74.2168 33.5148C58.3541 33.9086 46.5759 34.712 33.7686 35.9565C33.9902 35.3106 34.1961 34.8065 34.481 34.3024C34.8768 33.5936 35.4467 32.9792 36.1116 32.5224C40.4335 29.5294 43.7263 27.9226 48.6339 26.5994C49.5838 26.3474 50.5653 26.1741 51.5626 26.0953C60.7763 25.3865 66.4279 25.6858 75.9107 26.883C76.1956 26.9145 76.4648 26.9775 76.718 27.1035C77.2246 27.3398 77.4938 27.6391 77.6204 28.2062C77.6362 28.3795 77.6521 28.5685 77.6362 28.7418Z" fill="white"/>
</mask>
<g mask="url(#mask0)">
<path d="M13.8857 44.6527L9.78098 47.093L7.01056 54.2604L97.0097 51.3462V35.6724L32.2195 39.0907C25.7479 39.4321 19.4561 41.3409 13.8857 44.6527Z" fill="#9AA0A4" fill-opacity="0.15"/>
<path d="M24.7415 43.1554L7.08994 52.8433L4.31952 58.3567L96.535 56.6239L97.1682 40.0049L24.7415 43.1554Z" fill="#9AA0A4" fill-opacity="0.15"/>
</g>
<path d="M53.92 37.7285C53.9561 38.543 53.2834 38.701 52.5267 38.7375C51.77 38.774 51.1213 38.701 51.0733 37.8744C51.0373 37.0599 51.6739 36.9019 52.4306 36.8654C53.1993 36.8168 53.884 36.9019 53.92 37.7285Z" fill="url(#paint19_linear)"/>
<path d="M53.6033 37.6622C53.6285 38.2779 53.1126 38.3887 52.5212 38.4256C51.9299 38.4503 51.4266 38.401 51.3888 37.773C51.3636 37.1573 51.8544 37.0465 52.4457 37.0218C53.0371 36.9849 53.5656 37.0342 53.6033 37.6622Z" fill="url(#paint20_linear)"/>
<path d="M55.0294 37.5017C54.9565 37.4851 54.4584 37.3363 53.9117 37.3281C53.3163 37.3198 53.1462 37.3694 52.4051 37.3942C51.664 37.419 51.4818 37.3859 50.8986 37.4273C50.364 37.4686 49.8781 37.7044 49.8052 37.721C50.522 37.6631 51.4089 37.5882 52.4051 37.5634C53.3892 37.5386 54.3126 37.4934 55.0294 37.5017Z" fill="#DCDCDC"/>
<path d="M54.9511 37.8928C55.0598 37.7177 55.0236 37.496 55.0236 37.496C55.0236 37.496 55.0236 37.496 55.0115 37.496C54.2989 37.4727 53.3929 37.4844 52.4146 37.531C51.4362 37.5777 50.5302 37.6477 49.8176 37.7294C49.8055 37.7294 49.8055 37.7294 49.8055 37.7294C49.8055 37.7294 49.7934 37.9511 49.9142 38.1145C50.6027 37.9978 51.4845 37.9044 52.4266 37.8578C53.3809 37.8344 54.2506 37.8461 54.9511 37.8928Z" fill="#DCDDDE"/>
<path d="M50.2581 38.3615C50.6818 38.4636 51.2231 38.4198 51.2231 38.4198C51.2231 38.4198 51.2584 38.0697 52.4235 37.9967C53.5887 37.9238 53.6475 38.2739 53.6475 38.2739C53.6475 38.2739 54.1889 38.2594 54.6125 38.0989C54.742 38.0551 54.8244 37.953 54.8715 37.8508C54.1889 37.7925 53.3297 37.7779 52.4118 37.8362C51.4938 37.8946 50.5555 37.9682 49.8847 38.1141C49.9553 38.2017 50.1286 38.3323 50.2581 38.3615Z" fill="#C7C9CB"/>
<path d="M73.5513 36.7842C73.5873 37.5987 72.9146 37.7567 72.1579 37.7932C71.4012 37.8296 70.7526 37.7567 70.7045 36.9301C70.6685 36.1156 71.3051 35.9575 72.0618 35.9211C72.8306 35.8724 73.5152 35.9575 73.5513 36.7842Z" fill="url(#paint21_linear)"/>
<path d="M73.2346 36.7178C73.2597 37.3335 72.7438 37.4443 72.1525 37.4813C71.5611 37.5059 71.0578 37.4567 71.02 36.8287C70.9949 36.213 71.4856 36.1021 72.077 36.0775C72.6683 36.0406 73.1968 36.0898 73.2346 36.7178Z" fill="url(#paint22_linear)"/>
<path d="M74.6606 36.5573C74.5877 36.5408 74.0896 36.392 73.5429 36.3837C72.9476 36.3755 72.7775 36.4251 72.0364 36.4499C71.2953 36.4747 71.113 36.4416 70.5298 36.4829C69.9953 36.5243 69.5093 36.7601 69.4364 36.7766C70.1532 36.7188 71.0401 36.6439 72.0364 36.6191C73.0205 36.5943 73.9438 36.5491 74.6606 36.5573Z" fill="#DCDCDC"/>
<path d="M74.5824 36.9484C74.6911 36.7734 74.6548 36.5517 74.6548 36.5517C74.6548 36.5517 74.6548 36.5517 74.6427 36.5517C73.9301 36.5284 73.0242 36.54 72.0458 36.5867C71.0674 36.6334 70.1615 36.7034 69.4488 36.7851C69.4367 36.7851 69.4367 36.7851 69.4367 36.7851C69.4367 36.7851 69.4247 37.0068 69.5454 37.1702C70.2339 37.0535 71.1157 36.9601 72.0579 36.9134C73.0121 36.8901 73.8818 36.9018 74.5824 36.9484Z" fill="#DCDDDE"/>
<path d="M69.8893 37.4172C70.313 37.5193 70.8543 37.4755 70.8543 37.4755C70.8543 37.4755 70.8897 37.1253 72.0548 37.0524C73.2199 36.9794 73.2787 37.3296 73.2787 37.3296C73.2787 37.3296 73.8201 37.315 74.2438 37.1545C74.3732 37.1108 74.4556 37.0086 74.5027 36.9065C73.8201 36.8481 72.961 36.8335 72.043 36.8919C71.125 36.9503 70.1868 37.0239 69.5159 37.1698C69.5865 37.2573 69.7598 37.388 69.8893 37.4172Z" fill="#C7C9CB"/>
<path d="M13.8218 46.0381C13.6318 47.0147 13.2994 47.8496 12.6661 48.6057C12.4445 48.8578 12.1437 49.0153 11.8113 49.0153H9.84823C9.64243 49.0153 9.48412 48.8263 9.53161 48.6372C9.84823 47.0935 11.273 46.1798 13.6793 45.4395C13.8218 45.5497 13.8851 45.7545 13.8218 46.0381Z" fill="#B3B3B3"/>
<path d="M9.67402 48.6219C9.64235 48.811 9.80066 49 9.99063 49H9.18325C8.97745 49 8.81914 48.811 8.86664 48.6219C9.18325 47.0152 10.6872 46.1173 13.236 45.3611C13.4893 45.2824 13.6951 45.3139 13.8217 45.4241C11.4154 46.1645 9.99063 47.0782 9.67402 48.6219Z" fill="#6B7377"/>
<path d="M10.5761 45.2817C9.89541 45.7071 9.30967 46.3844 8.69226 47.5186L8.73975 47.4241L8.70809 45.5338L10.5761 45.2817Z" fill="#B3B3B3"/>
<path d="M32.7241 48.165C32.7241 49.2204 32.6449 50.0868 32.5657 51.0319H32.0117H31.9008C31.98 50.0553 32.0591 49.2204 32.0591 48.165C32.0591 43.8645 28.5288 40.3832 24.1753 40.3832C19.8218 40.3832 16.2915 43.8645 16.2915 48.165C16.2915 49.0156 16.4498 49.8347 16.6714 50.6224H16.5448L15.9116 50.5751C15.7216 49.8032 15.5791 49.0314 15.5791 48.1965C15.5791 43.5022 19.426 39.7058 24.1753 39.7058C28.9404 39.7058 32.7241 43.4707 32.7241 48.165Z" fill="url(#paint23_linear)" fill-opacity="0.8"/>
<path d="M88.3855 48.6683C88.3855 49.0464 88.3696 49.393 88.3538 49.7395L87.6573 49.8183C87.6889 49.3615 87.7047 48.8889 87.7047 48.369C87.7047 44.0686 84.2536 40.5873 80.0109 40.5873C75.7682 40.5873 72.317 44.0686 72.317 48.369C72.317 49.2354 72.3329 50.0388 72.4278 50.8265L72.3012 50.8422H71.7154C71.6521 50.0861 71.6363 49.3142 71.6363 48.4951C71.6363 43.6748 75.2616 39.9414 80.0267 39.9414C84.776 39.9414 88.3855 43.8481 88.3855 48.6683Z" fill="url(#paint24_linear)" fill-opacity="0.8"/>
<path d="M91.2983 33.1843C90.2218 33.1213 89.3986 33.0898 88.1796 32.759H88.1638L82.1955 28.112L85.33 27.9702L85.3933 28.0175L82.3538 28.1592L88.1954 32.7117C89.3986 33.0268 90.111 33.0583 91.2191 33.1213L91.2983 33.1843Z" fill="black" fill-opacity="0.4"/>
<path d="M17.8268 37.6726V37.6096C24.4125 36.8692 29.3201 36.3494 33.7686 35.9241V35.9871C29.3201 36.4124 24.4125 36.9322 17.8268 37.6726Z" fill="black" fill-opacity="0.4"/>
<path d="M29.5732 34.1763L29.6523 34.1291L30.2539 34.0818C30.8397 34.0188 31.3937 33.8455 31.8845 33.5462C36.428 30.8368 40.3224 28.8677 45.3092 26.7726C45.4516 26.7096 45.4833 26.6781 45.4833 26.6781C45.4833 26.6781 45.4516 26.6623 45.3567 26.6623C45.3408 26.6623 45.0242 26.6623 45.0242 26.6623L45.1984 26.5993H45.2775C45.4991 26.5836 45.5308 26.6308 45.5308 26.6623C45.5466 26.6938 45.515 26.7411 45.325 26.8356C40.3382 28.9307 36.4438 30.884 31.9162 33.5935C31.4096 33.8928 30.8397 34.0818 30.2539 34.1291L29.5732 34.1763Z" fill="black" fill-opacity="0.4"/>
<path d="M32.027 49.5348V49.4718L67.1876 49.078C68.5016 49.0622 69.7047 48.3849 70.3854 47.2664C72.6176 43.6118 74.1216 40.7291 76.2587 36.3499C76.702 35.452 76.8286 34.4123 76.607 33.4356L76.4804 32.837L76.5437 32.8213L76.6703 33.4199C76.892 34.4123 76.7653 35.4677 76.3221 36.3814C74.169 40.7606 72.6809 43.6433 70.4488 47.2979C69.7522 48.4321 68.5332 49.1252 67.2034 49.141L32.027 49.5348Z" fill="black" fill-opacity="0.4"/>
<path d="M34.4334 49.4871C32.5654 43.1388 32.2963 37.8144 33.7527 35.9241L33.8002 35.9556C32.3437 37.8144 32.6129 43.123 34.4809 49.4556L34.4334 49.4871Z" fill="black" fill-opacity="0.4"/>
<path d="M28.8135 36.4762L28.7502 36.4447L29.8584 34.1605L29.9217 34.1448L28.8135 36.4762Z" fill="black" fill-opacity="0.4"/>
<path d="M56.1691 49.2356C55.6625 43.0448 55.8208 39.7997 56.929 34.1761L58.5912 25.7327L58.6545 25.7484L56.9923 34.1918C55.8841 39.8155 55.7258 43.0448 56.2482 49.2356H56.1691Z" fill="black" fill-opacity="0.4"/>
<path opacity="0.5" d="M19.2511 42.0994L15.9266 39.9728L15.9582 39.9255L19.2986 42.0679L19.2511 42.0994Z" fill="black" fill-opacity="0.4"/>
<path opacity="0.5" d="M84.427 42.0045L84.3636 41.9572L86.1842 37.6567H86.2475L84.427 42.0045Z" fill="black" fill-opacity="0.4"/>
<path d="M9.38862 41.8V41.7685C9.37279 41.4377 9.37279 41.2329 9.43611 40.9809C9.54693 40.5241 9.81605 40.083 10.2277 39.7522C11.5733 38.618 14.0113 38.0036 17.8265 37.6098C18.0165 37.5941 18.1431 37.6256 18.1906 37.7201C18.2381 37.8146 18.1906 37.9406 18.064 38.0666C17.0825 39.1378 16.1959 39.8782 14.9928 40.6186C14.5179 40.9021 14.0113 41.1227 13.473 41.2644C12.3648 41.548 10.7659 41.674 9.42028 41.8H9.38862ZM17.8265 37.6728C14.0271 38.0509 11.605 38.6652 10.2593 39.7994C9.86355 40.1302 9.59442 40.5556 9.49943 40.9966C9.43611 41.2329 9.43611 41.4377 9.45194 41.737C10.7817 41.611 12.3648 41.485 13.4572 41.2014C13.9954 41.0754 14.502 40.8549 14.9611 40.5713C16.1484 39.8309 17.035 39.0906 18.0165 38.0351C18.1273 37.9249 18.159 37.8146 18.1273 37.7516C18.0957 37.6886 17.9848 37.6571 17.8265 37.6728Z" fill="black" fill-opacity="0.4"/>
<path d="M10.0221 40.3508H9.54718L9.59467 40.2878H10.0538L10.0221 40.3508Z" fill="black" fill-opacity="0.4"/>
<path d="M17.8262 37.6416C14.1692 38.0039 11.6363 38.6025 10.2431 39.7682C9.8632 40.0833 9.57824 40.5086 9.46742 40.9812C9.4041 41.2332 9.4041 41.438 9.41993 41.7688C10.8131 41.627 12.3803 41.501 13.4727 41.2332C14.0109 41.1072 14.5175 40.8867 14.9924 40.5874C16.2906 39.784 17.1613 38.9963 18.0478 38.0354C18.2694 37.7992 18.1745 37.6101 17.8262 37.6416Z" fill="url(#paint25_linear)"/>
<path d="M15.0724 40.5413C15.0407 40.557 15.0091 40.5728 14.9774 40.6043C14.8033 40.7145 14.6133 40.8248 14.4233 40.9036H12.6028C12.5869 40.7775 12.5711 40.6515 12.5553 40.5097C12.5395 40.305 12.5236 40.1002 12.5236 39.8639C12.5236 39.7221 12.5236 39.5803 12.5395 39.4386C12.5553 39.2023 12.5711 38.9975 12.6028 38.8242H14.4392H15.0407C15.0407 38.903 15.0407 38.9817 15.0249 39.0763C15.0091 39.2495 15.0091 39.4228 15.0091 39.5961C15.0091 39.8639 15.0249 40.1317 15.0407 40.3837C15.0566 40.431 15.0566 40.4782 15.0724 40.5413Z" fill="url(#paint26_linear)"/>
<path d="M18.0326 38.0509C17.7951 38.3187 17.5418 38.5708 17.2885 38.807C16.6553 39.4214 15.9587 39.9727 15.0563 40.5398C15.0563 40.4768 15.0405 40.4296 15.0405 40.3666C15.0247 40.1145 15.0089 39.8625 15.0089 39.5789C15.0089 39.4056 15.0088 39.2166 15.0247 39.0591C15.0247 38.9803 15.0247 38.8858 15.0405 38.807C15.0405 38.6968 15.0563 38.6023 15.0563 38.5077C15.0722 38.3345 15.088 38.1769 15.088 38.0037C15.8637 37.8619 16.7186 37.7516 17.6843 37.6414H18.0167C18.2067 37.7044 18.2225 37.8619 18.0326 38.0509Z" fill="url(#paint27_linear)"/>
<path d="M18.0324 38.0517C17.1458 39.0126 16.2751 39.7845 14.977 40.6036C14.5179 40.8871 13.9955 41.1077 13.4572 41.2495C12.3649 41.5172 10.7976 41.6433 9.4045 41.785C9.4045 41.596 9.38867 41.4385 9.4045 41.2967C10.4652 41.1864 11.7633 41.0604 12.634 40.8399C13.1723 40.7139 13.6789 40.4933 14.1538 40.194C15.4203 39.4064 16.291 38.6503 17.1458 37.7209C17.3675 37.6894 17.5891 37.6736 17.8107 37.6421C18.1749 37.6106 18.2698 37.7996 18.0324 38.0517Z" fill="#B2B2B2"/>
<g style="mix-blend-mode:screen">
<path d="M17.8262 37.6416C14.1692 38.0039 11.6363 38.6025 10.2431 39.7682C9.8632 40.0833 9.57824 40.5086 9.46742 40.9812C9.4041 41.2332 9.4041 41.438 9.41993 41.7688C10.8131 41.627 12.3803 41.501 13.4727 41.2332C14.0109 41.1072 14.5175 40.8867 14.9924 40.5874C16.2906 39.784 17.1613 38.9963 18.0478 38.0354C18.2694 37.7992 18.1745 37.6101 17.8262 37.6416Z" fill="url(#paint28_linear)"/>
</g>
<path d="M92.929 36.2556V37.3425L86.1692 37.6733L87.1507 35.342C87.4832 34.5543 88.2272 34.0345 89.0821 34.003C90.4436 33.94 91.5042 34.0345 92.5649 34.7119C92.8024 35.1687 92.929 35.7043 92.929 36.2556Z" fill="#A80500"/>
<path d="M92.9289 36.2557V37.3426L91.9158 37.3898C91.235 36.2872 90.9501 35.3735 90.8709 34.0503C91.4567 34.1448 92.0107 34.3496 92.5648 34.6961C92.8023 35.1687 92.9289 35.7043 92.9289 36.2557Z" fill="#EE0000"/>
<path d="M88.1639 36.413C88.1639 36.5233 88.243 36.6178 88.3697 36.6178L91.7417 36.476C91.9 36.476 92.0266 36.3343 92.0266 36.1767V35.8144C92.0266 35.4994 91.7575 35.2473 91.4409 35.2473L89.4778 35.1528C88.7655 35.1843 88.2114 35.7199 88.1639 36.413Z" fill="#F0F1F2"/>
<path opacity="0.8" d="M77.6363 28.7413C77.5888 29.3083 77.4621 30.7261 77.3988 31.3719C77.383 31.5925 77.3196 31.813 77.2247 32.002C76.8922 32.6321 76.4173 33.0417 75.5782 33.2938C75.135 33.4355 74.6759 33.4985 74.2168 33.5143C58.3541 33.9081 46.5759 34.7115 33.7686 35.9559C33.9902 35.3101 34.1961 34.806 34.481 34.3019C34.8768 33.5931 35.4467 32.9787 36.1116 32.5219C40.4335 29.5289 43.7263 27.9221 48.6339 26.5989C49.5838 26.3469 50.5653 26.1736 51.5626 26.0948C60.7763 25.3859 66.4279 25.6852 75.9107 26.8824C76.1956 26.914 76.4648 26.977 76.7181 27.103C77.2247 27.3393 77.4938 27.6386 77.6204 28.2057C77.6363 28.3789 77.6521 28.568 77.6363 28.7413Z" fill="#B2B6B9"/>
<path d="M73.1246 33.5772L72.5231 33.5142L73.3938 26.583L73.9953 26.646L73.1246 33.5772Z" fill="#6B7377"/>
<path d="M38.2969 31.4355L37.9169 35.2634C36.698 35.3737 35.479 35.484 34.2283 35.61C34.4025 35.1689 34.5608 34.8066 34.7508 34.46C35.1307 33.7984 35.6531 33.2156 36.2864 32.7745C36.9829 32.2862 37.6478 31.8451 38.2969 31.4355Z" fill="#6B7377"/>
<path d="M39.3093 35.0418C39.3093 35.1678 39.2143 35.2781 39.0877 35.2781C38.6919 35.2938 38.2645 35.2781 37.8054 35.2466C37.5679 35.2308 37.3304 35.2151 37.1088 35.1836C36.6497 35.1363 36.2856 34.7582 36.2539 34.3014C36.2539 34.2857 36.2539 34.2541 36.2539 34.2384C36.2381 33.8446 36.2856 33.5295 36.3489 33.2775C36.3647 33.2145 36.3806 33.1672 36.3964 33.1042C36.4439 32.9939 36.5072 32.8522 36.618 32.7104C36.8555 32.3638 37.2354 32.1433 37.647 32.096C37.8054 32.0803 37.9795 32.0803 38.1695 32.1118C38.3594 32.1433 38.5178 32.2063 38.6602 32.2851C38.961 32.4426 39.151 32.7261 39.1827 33.057C39.2143 33.3562 39.246 33.6713 39.2618 33.9864C39.2776 34.3644 39.2935 34.711 39.3093 35.0418Z" fill="url(#paint29_linear)"/>
<path d="M39.3093 35.0418C39.3093 35.1678 39.2143 35.2781 39.0877 35.2781C38.6919 35.2938 38.2645 35.2781 37.8054 35.2466C37.5679 35.2308 37.3304 35.2151 37.1088 35.1836C36.6497 35.1363 36.2856 34.7582 36.2539 34.3014C36.2539 34.2857 36.2539 34.2541 36.2539 34.2384C36.2381 33.8446 36.2856 33.5295 36.3489 33.2775C36.3647 33.2145 36.3806 33.1672 36.3964 33.1042C36.4439 32.9939 36.5072 32.8522 36.618 32.7104C36.8555 32.3638 37.2354 32.1433 37.647 32.096C37.8054 32.0803 37.9795 32.0803 38.1695 32.1118C38.3594 32.1433 38.5178 32.2063 38.6602 32.2851C38.961 32.4426 39.151 32.7261 39.1827 33.057C39.2143 33.3562 39.246 33.6713 39.2618 33.9864C39.2776 34.3644 39.2935 34.711 39.3093 35.0418Z" fill="url(#paint30_linear)"/>
<path d="M60.4443 26.0321C65.5735 26.0321 70.3228 26.5047 75.8636 27.1978C76.1328 27.2293 76.3702 27.2923 76.576 27.3868C77.0193 27.5916 77.2093 27.8279 77.3042 28.269C77.3359 28.395 77.3359 28.5368 77.3201 28.71C77.2726 29.2771 77.1459 30.6949 77.0826 31.3407C77.0668 31.5455 77.0193 31.7188 76.9401 31.8606C76.6393 32.4434 76.2119 32.7742 75.4837 33.0105C75.1037 33.1365 74.6763 33.1995 74.2014 33.2153C59.621 33.5933 48.0011 34.2865 34.2123 35.6097C34.3865 35.1686 34.5448 34.8063 34.7506 34.4597C35.1305 33.7981 35.653 33.2153 36.2862 32.7742C40.7189 29.7025 43.9642 28.1744 48.7135 26.8985C49.6317 26.6464 50.5974 26.4889 51.5789 26.4102C54.9351 26.1424 57.753 26.0321 60.4443 26.0321ZM60.4443 25.717C57.7055 25.717 54.8559 25.8431 51.5472 26.0951C50.5657 26.1739 49.5842 26.3314 48.6185 26.5992C43.7109 27.9224 40.4339 29.5292 36.0962 32.5222C35.4313 32.979 34.8614 33.5933 34.4656 34.3022C34.1807 34.8063 33.9749 35.3104 33.7532 35.9562C46.5605 34.7118 58.3229 33.9242 74.2014 33.5146C74.6605 33.4988 75.1196 33.4358 75.5628 33.294C76.4019 33.0263 76.8768 32.6324 77.2093 32.0023C77.3042 31.8133 77.3676 31.5928 77.3834 31.3722C77.4309 30.7421 77.5575 29.3086 77.6209 28.7415C77.6367 28.5683 77.6367 28.395 77.605 28.2217C77.4942 27.6546 77.2251 27.3553 76.7027 27.119C76.4494 27.0088 76.1802 26.93 75.8953 26.8985C69.832 26.1266 65.3202 25.717 60.4443 25.717Z" fill="#6B7377"/>
<path d="M59.7949 26.0325L58.9559 33.767C58.3068 33.7985 57.6577 33.83 57.0087 33.8615L58.5443 26.0325C58.9717 26.0325 59.3833 26.0325 59.7949 26.0325Z" fill="#6B7377"/>
<path d="M58.5603 26.0486L57.0247 33.8776C56.3598 33.9091 55.6949 33.9564 55.03 33.9879L57.2938 26.0801C57.7054 26.0643 58.1328 26.0486 58.5603 26.0486Z" fill="#6B7377"/>
<defs>
<linearGradient id="paint0_linear" x1="51.061" y1="55.7768" x2="51.061" y2="60.1603" gradientUnits="userSpaceOnUse">
<stop stop-color="#0C0C0C"/>
<stop offset="1" stop-color="white" stop-opacity="0"/>
</linearGradient>
<radialGradient id="paint1_radial" cx="0" cy="0" r="1" gradientUnits="userSpaceOnUse" gradientTransform="translate(24.1605 48.3541) rotate(-1.35718) scale(6.65088 6.72059)">
<stop offset="0.708877" stop-color="#3D4346"/>
<stop offset="0.78453" stop-color="#6B7377"/>
<stop offset="0.902378" stop-color="#46494B"/>
<stop offset="1" stop-color="#46494B"/>
</radialGradient>
<radialGradient id="paint2_radial" cx="0" cy="0" r="1" gradientUnits="userSpaceOnUse" gradientTransform="translate(24.0933 48.3765) scale(3.35581 3.33752)">
<stop offset="0.5732" stop-color="white"/>
<stop offset="0.7573" stop-color="#818181"/>
<stop offset="1" stop-color="#666666"/>
</radialGradient>
<linearGradient id="paint3_linear" x1="26.3782" y1="50.2519" x2="26.3782" y2="45.0687" gradientUnits="userSpaceOnUse">
<stop stop-color="#46494B"/>
<stop offset="0.5021" stop-color="#691418"/>
<stop offset="1" stop-color="#46494B"/>
</linearGradient>
<radialGradient id="paint4_radial" cx="0" cy="0" r="1" gradientUnits="userSpaceOnUse" gradientTransform="translate(24.0927 48.3753) scale(4.81425 4.79041)">
<stop offset="0.8536" stop-color="#46494B"/>
<stop offset="1" stop-color="#F1F1F1"/>
</radialGradient>
<radialGradient id="paint5_radial" cx="0" cy="0" r="1" gradientUnits="userSpaceOnUse" gradientTransform="translate(24.0918 48.3778) rotate(-1.60092) scale(3.90253 3.88324)">
<stop stop-color="#535353"/>
<stop offset="0.5272" stop-color="#515151"/>
<stop offset="1" stop-color="#535353"/>
</radialGradient>
<radialGradient id="paint6_radial" cx="0" cy="0" r="1" gradientUnits="userSpaceOnUse" gradientTransform="translate(24.0982 48.3752) rotate(-21.9524) scale(4.24165 4.22653)">
<stop stop-color="#A0A0A0"/>
<stop offset="0.5272" stop-color="#858585"/>
<stop offset="1" stop-color="#A0A0A0"/>
</radialGradient>
<radialGradient id="paint7_radial" cx="0" cy="0" r="1" gradientUnits="userSpaceOnUse" gradientTransform="translate(24.0933 48.3756) rotate(-44.8578) scale(4.80297)">
<stop stop-color="#F7F7F7"/>
<stop offset="0.5272" stop-color="#BFBFBF"/>
<stop offset="1" stop-color="#F7F7F7"/>
</radialGradient>
<radialGradient id="paint8_radial" cx="0" cy="0" r="1" gradientUnits="userSpaceOnUse" gradientTransform="translate(80.0915 48.3541) rotate(-1.35718) scale(6.65087 6.72059)">
<stop offset="0.708877" stop-color="#3D4346"/>
<stop offset="0.78453" stop-color="#6B7377"/>
<stop offset="0.902378" stop-color="#46494B"/>
<stop offset="1" stop-color="#46494B"/>
</radialGradient>
<radialGradient id="paint9_radial" cx="0" cy="0" r="1" gradientUnits="userSpaceOnUse" gradientTransform="translate(80.2036 48.3751) scale(2.35445 2.3428)">
<stop offset="0.8368" stop-color="#1A1A1A"/>
<stop offset="1" stop-color="#4D4D4D"/>
</radialGradient>
<radialGradient id="paint10_radial" cx="0" cy="0" r="1" gradientUnits="userSpaceOnUse" gradientTransform="translate(80.2043 48.3762) scale(3.3558 3.33752)">
<stop offset="0.5732" stop-color="white"/>
<stop offset="0.7573" stop-color="#818181"/>
<stop offset="1" stop-color="#666666"/>
</radialGradient>
<linearGradient id="paint11_linear" x1="82.4891" y1="50.2514" x2="82.4891" y2="45.0682" gradientUnits="userSpaceOnUse">
<stop stop-color="#46494B"/>
<stop offset="0.5021" stop-color="#691418"/>
<stop offset="1" stop-color="#46494B"/>
</linearGradient>
<radialGradient id="paint12_radial" cx="0" cy="0" r="1" gradientUnits="userSpaceOnUse" gradientTransform="translate(80.2037 48.3751) scale(4.81424 4.79041)">
<stop offset="0.8536" stop-color="#46494B"/>
<stop offset="1" stop-color="#F1F1F1"/>
</radialGradient>
<radialGradient id="paint13_radial" cx="0" cy="0" r="1" gradientUnits="userSpaceOnUse" gradientTransform="translate(80.2029 48.3775) rotate(-1.60093) scale(3.90253 3.88324)">
<stop stop-color="#535353"/>
<stop offset="0.5272" stop-color="#515151"/>
<stop offset="1" stop-color="#535353"/>
</radialGradient>
<radialGradient id="paint14_radial" cx="0" cy="0" r="1" gradientUnits="userSpaceOnUse" gradientTransform="translate(80.2092 48.3747) rotate(-21.9524) scale(4.24165 4.22654)">
<stop stop-color="#A0A0A0"/>
<stop offset="0.5272" stop-color="#858585"/>
<stop offset="1" stop-color="#A0A0A0"/>
</radialGradient>
<radialGradient id="paint15_radial" cx="0" cy="0" r="1" gradientUnits="userSpaceOnUse" gradientTransform="translate(80.2043 48.3754) rotate(-44.8578) scale(4.80297)">
<stop stop-color="#F7F7F7"/>
<stop offset="0.5272" stop-color="#BFBFBF"/>
<stop offset="1" stop-color="#F7F7F7"/>
</radialGradient>
<linearGradient id="paint16_linear" x1="46.16" y1="22.405" x2="66.4972" y2="42.8434" gradientUnits="userSpaceOnUse">
<stop stop-color="white"/>
<stop offset="0.1088" stop-color="#B2B2B2"/>
<stop offset="0.2176" stop-color="white"/>
<stop offset="0.3598" stop-color="#B2B2B2"/>
<stop offset="0.4435" stop-color="white"/>
<stop offset="0.523" stop-color="#B2B2B2"/>
<stop offset="0.5983" stop-color="white"/>
<stop offset="0.6946" stop-color="#B2B2B2"/>
<stop offset="0.7615" stop-color="white"/>
<stop offset="0.8536" stop-color="#B2B2B2"/>
<stop offset="0.9247" stop-color="white"/>
<stop offset="1" stop-color="#B2B2B2"/>
</linearGradient>
<linearGradient id="paint17_linear" x1="58.4064" y1="33.8703" x2="58.4064" y2="26.028" gradientUnits="userSpaceOnUse">
<stop stop-color="#1A1A1A"/>
<stop offset="0.2845" stop-color="#4D4D4D"/>
<stop offset="0.7866" stop-color="#1A1A1A"/>
</linearGradient>
<linearGradient id="paint18_linear" x1="56.7846" y1="33.9827" x2="56.7846" y2="26.0451" gradientUnits="userSpaceOnUse">
<stop stop-color="#1A1A1A"/>
<stop offset="0.2845" stop-color="#4D4D4D"/>
<stop offset="0.7866" stop-color="#1A1A1A"/>
</linearGradient>
<linearGradient id="paint19_linear" x1="52.5462" y1="38.6905" x2="52.4629" y2="36.9921" gradientUnits="userSpaceOnUse">
<stop stop-color="white"/>
<stop offset="1" stop-color="#969696"/>
</linearGradient>
<linearGradient id="paint20_linear" x1="52.4967" y1="38.7473" x2="52.4967" y2="36.4659" gradientUnits="userSpaceOnUse">
<stop stop-color="#DCDCDC"/>
<stop offset="1" stop-color="#969696"/>
</linearGradient>
<linearGradient id="paint21_linear" x1="72.1775" y1="37.7462" x2="72.0942" y2="36.0477" gradientUnits="userSpaceOnUse">
<stop stop-color="white"/>
<stop offset="1" stop-color="#969696"/>
</linearGradient>
<linearGradient id="paint22_linear" x1="72.1279" y1="37.803" x2="72.1279" y2="35.5216" gradientUnits="userSpaceOnUse">
<stop stop-color="#DCDCDC"/>
<stop offset="1" stop-color="#969696"/>
</linearGradient>
<linearGradient id="paint23_linear" x1="24.1595" y1="51.044" x2="24.1595" y2="39.7022" gradientUnits="userSpaceOnUse">
<stop offset="0.1255" stop-color="#6B7377"/>
<stop offset="1" stop-color="#CBCBCB"/>
</linearGradient>
<linearGradient id="paint24_linear" x1="80.0186" y1="50.8538" x2="80.0186" y2="39.9379" gradientUnits="userSpaceOnUse">
<stop offset="0.1255" stop-color="#6B7377"/>
<stop offset="1" stop-color="#CBCBCB"/>
</linearGradient>
<linearGradient id="paint25_linear" x1="9.72684" y1="39.7046" x2="18.1689" y2="39.7046" gradientUnits="userSpaceOnUse">
<stop stop-color="#FAFAFA"/>
<stop offset="1" stop-color="#666666"/>
</linearGradient>
<linearGradient id="paint26_linear" x1="13.7973" y1="40.901" x2="13.7973" y2="38.8086" gradientUnits="userSpaceOnUse">
<stop stop-color="#4D4D4D"/>
<stop offset="0.1841" stop-color="white"/>
<stop offset="0.4812" stop-color="#808080"/>
<stop offset="0.8201" stop-color="white"/>
<stop offset="1" stop-color="#4D4D4D"/>
</linearGradient>
<linearGradient id="paint27_linear" x1="16.599" y1="40.5407" x2="16.599" y2="37.6535" gradientUnits="userSpaceOnUse">
<stop stop-color="#4D4D4D"/>
<stop offset="0.1841" stop-color="white"/>
<stop offset="0.4812" stop-color="#808080"/>
<stop offset="0.8201" stop-color="white"/>
<stop offset="1" stop-color="#4D4D4D"/>
</linearGradient>
<linearGradient id="paint28_linear" x1="9.72684" y1="39.7046" x2="18.1689" y2="39.7046" gradientUnits="userSpaceOnUse">
<stop stop-color="#4D4D4D"/>
<stop offset="0.2845"/>
<stop offset="0.4477" stop-color="#4D4D4D"/>
<stop offset="0.6276"/>
<stop offset="0.7866" stop-color="#262626"/>
<stop offset="1"/>
</linearGradient>
<linearGradient id="paint29_linear" x1="39.306" y1="33.6875" x2="36.236" y2="33.6875" gradientUnits="userSpaceOnUse">
<stop stop-color="#B3B3B3"/>
<stop offset="0.2427" stop-color="white"/>
<stop offset="0.4017" stop-color="white"/>
<stop offset="1" stop-color="#B3B3B3"/>
</linearGradient>
<linearGradient id="paint30_linear" x1="37.771" y1="35.2786" x2="37.771" y2="32.0963" gradientUnits="userSpaceOnUse">
<stop stop-color="#B3B3B3"/>
<stop offset="0.2845" stop-color="white"/>
<stop offset="1" stop-color="#B3B3B3"/>
</linearGradient>
</defs>
</svg>
