<svg width="52" height="39" viewBox="0 0 52 39" fill="none" xmlns="http://www.w3.org/2000/svg">
<path d="M44.2998 9.76465H33.5681V29.2154H51.1512V20.4606L49.1005 13.3733C48.4824 11.236 46.5248 9.76465 44.2998 9.76465Z" fill="#FF7058"/>
<path d="M48.5839 20.3711L46.7563 14.0536C46.4413 12.9676 45.4311 12.2075 44.2997 12.2075H36.0105V20.3711H48.5839Z" fill="#84DBFF"/>
<path d="M48.5862 20.3677H36.0063V12.2041L48.5862 20.3677Z" fill="#CDD6E0"/>
<path d="M48.5839 20.3711L46.7563 14.0536C46.4413 12.9676 45.4311 12.2075 44.2997 12.2075H36.0105L48.5839 20.3711Z" fill="#F2F2F2"/>
<path d="M3.2481 0H30.3199C32.1129 0 33.568 1.45403 33.568 3.2481V29.2145H0V3.2481C0 1.45413 1.45403 0 3.2481 0Z" fill="#FFD15C"/>
<path d="M22.0004 0.00537109V8.58787L20.7444 7.33197L19.4279 8.64857L18.1125 7.33197L16.797 8.64857L15.4793 7.33197L14.1465 8.64857L12.8321 7.33197L11.561 8.60309V0.00537109H22.0004Z" fill="#F2F2F2"/>
<path d="M51.974 29.2132V32.8836H0.00439453V29.2132H5.42872C6.69548 26.9396 9.13156 25.4021 11.9249 25.4021C14.7074 25.4021 17.1435 26.9396 18.4211 29.2132H35.8743C37.141 26.9396 39.5652 25.4021 42.3586 25.4021C45.152 25.4021 47.5772 26.9396 48.8548 29.2132H51.974Z" fill="#334A5E"/>
<path d="M47.5456 32.861C47.5456 35.7259 45.2232 38.0483 42.3584 38.0483C39.4936 38.0483 37.1733 35.7259 37.1733 32.861C37.1733 29.9962 39.4946 27.6738 42.3584 27.6738C45.2244 27.6738 47.5456 29.9962 47.5456 32.861Z" fill="#40596B"/>
<path d="M44.4438 32.8607C44.4438 34.0117 43.5105 34.9439 42.3607 34.9439C41.2097 34.9439 40.2754 34.0117 40.2754 32.8607C40.2754 31.7098 41.2087 30.7776 42.3607 30.7776C43.5105 30.7766 44.4438 31.7099 44.4438 32.8607Z" fill="#ACB3BA"/>
<path d="M17.1078 32.861C17.1078 35.7259 14.7843 38.0483 11.9206 38.0483C9.05579 38.0483 6.7334 35.7259 6.7334 32.861C6.7334 29.9962 9.05579 27.6738 11.9206 27.6738C14.7843 27.6738 17.1078 29.9962 17.1078 32.861Z" fill="#40596B"/>
<path d="M14.0037 32.8607C14.0037 34.0117 13.0715 34.9439 11.9206 34.9439C10.7696 34.9439 9.83643 34.0117 9.83643 32.8607C9.83643 31.7098 10.7697 30.7776 11.9206 30.7776C13.0714 30.7776 14.0037 31.7099 14.0037 32.8607Z" fill="#ACB3BA"/>
</svg>
