<svg width="54" height="54" viewBox="0 0 54 54" fill="none" xmlns="http://www.w3.org/2000/svg">
<path d="M52.418 46.5117H1.58203C0.708328 46.5117 0 45.8034 0 44.9297V9.07031C0 8.19661 0.708328 7.48828 1.58203 7.48828H52.418C53.2917 7.48828 54 8.19661 54 9.07031V44.9297C54 45.8034 53.2917 46.5117 52.418 46.5117Z" fill="#F79B00"/>
<path d="M52.418 7.48828H27V46.5117H52.418C53.2917 46.5117 54 45.8034 54 44.9297V9.07031C54 8.19661 53.2917 7.48828 52.418 7.48828Z" fill="#F28300"/>
<path d="M54 9.07031C54 8.19661 53.2917 7.48828 52.418 7.48828H1.58203C0.708328 7.48828 0 8.19661 0 9.07031V9.89033L26.0881 28.2927C26.6344 28.6781 27.3647 28.6786 27.9119 28.2927L54 9.89033V9.07031Z" fill="#FBB200"/>
<path d="M15.4616 40.1836H7.91016C7.03645 40.1836 6.32812 39.4753 6.32812 38.6016C6.32812 37.7279 7.03645 37.0195 7.91016 37.0195H15.4616C16.3353 37.0195 17.0436 37.7279 17.0436 38.6016C17.0436 39.4753 16.3353 40.1836 15.4616 40.1836Z" fill="#FFFFF2"/>
<path d="M52.418 7.48828H27V28.582C27.3191 28.582 27.6384 28.4857 27.9119 28.2928L54 9.89033V9.07031C54 8.19661 53.2917 7.48828 52.418 7.48828Z" fill="#F79B00"/>
</svg>
