<svg width="69" height="69" viewBox="0 0 69 69" fill="none" xmlns="http://www.w3.org/2000/svg">
<path d="M30.457 0C27.113 0 24.3926 2.72038 24.3926 6.06445V8.2207L28.4355 10.2422H30.457H32.4785L36.5215 8.2207V6.06445C36.5215 2.72038 33.8011 0 30.457 0Z" fill="#FF6A4D"/>
<path d="M36.5215 8.2207V6.06445C36.5215 2.72038 33.8011 0 30.457 0V10.2422H32.4785L36.5215 8.2207Z" fill="#E64D2E"/>
<path d="M0 60.9141C0.936756 65.5274 5.21759 69 10.1074 69C14.9973 69 19.4129 65.5274 20.3496 60.9141L15.9579 58.8926H2.80636L0 60.9141Z" fill="#474F54"/>
<path d="M10.1074 64.957C6.76335 64.957 4.04297 62.2367 4.04297 58.8926C4.04297 55.5485 6.76335 52.8281 10.1074 52.8281C13.4515 52.8281 16.3066 55.5485 16.3066 58.8926C16.3066 62.2367 13.4515 64.957 10.1074 64.957Z" fill="#F2F9FF"/>
<path d="M20.3496 24.5273H8.08594L4.04297 28.5703V40.6992L8.08594 42.7207H20.3496L26.4141 40.6992V29.7832L24.3926 28.5703L20.3496 24.5273Z" fill="#FF9100"/>
<path d="M4.04297 20.4844V28.5703H24.3926L26.4141 27.5239L24.3926 26.5488V20.4844H4.04297Z" fill="#FABE2C"/>
<path d="M32.4785 60.9141H0V58.8926C0 51.0775 6.4701 44.7422 14.2852 44.7422L17.6543 42.7207H36.5215V57.5449L32.4785 60.9141Z" fill="#FF6A4D"/>
<path d="M0 40.6992H28.4355V44.7422H0V40.6992Z" fill="#32393F"/>
<path d="M42.5859 50.9278V58.5286L40.5645 60.9141H32.4785V44.7422H28.4355C26.2119 44.7422 24.3926 42.9229 24.3926 40.6992V30.5918H36.5215V36.6562C38.7451 36.6562 40.5645 38.4756 40.5645 40.6992V48.7852L42.5859 50.9278Z" fill="#575F64"/>
<path d="M42.5859 50.9278V58.5286L40.5645 60.9141H32.4785V44.7422H30.457V30.5918H36.5215V36.6562C38.7451 36.6562 40.5645 38.4756 40.5645 40.6992V48.7852L42.5859 50.9278Z" fill="#474F54"/>
<path d="M36.5215 28.5703V26.5488C36.5215 23.2048 33.8011 20.4844 30.457 20.4844C27.113 20.4844 24.3926 23.2048 24.3926 26.5488V30.5918C24.3926 33.9411 27.1077 36.6562 30.457 36.6562H46.7637C50.113 36.6562 52.8281 33.9411 52.8281 30.5918V28.5703H36.5215Z" fill="#FF6A4D"/>
<path d="M52.8281 30.5918V28.5703H36.5215V26.5488C36.5215 23.2048 33.8011 20.4844 30.457 20.4844V36.6562H46.7637C50.113 36.6562 52.8281 33.9411 52.8281 30.5918Z" fill="#E64D2E"/>
<path d="M32.4785 10.2422H30.457H28.4355L24.3926 12.2637V14.2852C24.3926 17.6292 27.113 20.4844 30.457 20.4844C33.8011 20.4844 36.5215 17.6292 36.5215 14.2852V12.2637L32.4785 10.2422Z" fill="#FFE1BA"/>
<path d="M36.5215 14.2852V12.2637L32.4785 10.2422H30.457V20.4844C33.8011 20.4844 36.5215 17.6292 36.5215 14.2852Z" fill="#FFBFAB"/>
<path d="M30.457 8.2207H24.3926V12.2637H30.457H40.5645V8.2207H30.457Z" fill="#474F54"/>
<path d="M30.457 8.2207H40.5645V12.2637H30.457V8.2207Z" fill="#32393F"/>
<path d="M58.3991 41.1512C58.176 39.5778 57.7337 36.4785 56.8514 30.3054L48.7852 26.5488V42.7207C48.7852 45.9097 46.038 48.7852 42.5859 48.7852H40.5645V60.9141H44.6074H64.957L69 58.8926V54.8496C69 48.3825 64.5386 42.7444 58.3991 41.1512Z" fill="#E64D2E"/>
<path d="M60.9141 32.6133H54.8496C51.5055 32.6133 48.7852 29.8929 48.7852 26.5488C48.7852 23.2048 51.5055 20.4844 54.8496 20.4844H60.9141V32.6133Z" fill="#FF6A4D"/>
<path d="M59.5001 48.8467L58.9123 51.093L55.4958 49.4147C51.597 50.8178 48.7852 54.5168 48.7852 58.8926C48.7852 64.4656 53.3196 69.0001 58.8926 69.0001C64.4655 69.0001 69 64.4656 69 58.8926C69 53.5278 64.7855 49.168 59.5001 48.8467Z" fill="#32393F"/>
<path d="M58.8926 52.8281C55.5485 52.8281 52.8281 55.5485 52.8281 58.8926C52.8281 62.2367 55.5485 64.957 58.8926 64.957C62.2367 64.957 64.957 62.2367 64.957 58.8926C64.957 55.5485 62.2367 52.8281 58.8926 52.8281Z" fill="#DFE7F4"/>
<path d="M60.8944 58.6063L59.5003 48.8466C59.295 48.8342 59.1007 48.7852 58.8926 48.7852C57.6956 48.7852 56.5624 49.031 55.496 49.4146L56.8909 59.1788L60.8944 58.6063Z" fill="#C7CFE1"/>
</svg>
